M48
; DRILL file {KiCad 5.1.6-c6e7f7d~86~ubuntu16.04.1} date Thu Jun  4 23:59:23 2020
; FORMAT={-:-/ absolute / inch / decimal}
; #@! TF.CreationDate,2020-06-04T23:59:23+02:00
; #@! TF.GenerationSoftware,Kicad,Pcbnew,5.1.6-c6e7f7d~86~ubuntu16.04.1
; #@! TF.FileFunction,Plated,1,2,PTH
FMAT,2
INCH
T1C0.0197
T2C0.0315
T3C0.0331
T4C0.0394
T5C0.0433
T6C0.0472
T7C0.0512
T8C0.0551
T9C0.0630
T10C0.1063
%
G90
G05
T1
X9.1526Y-5.6496
X9.1759Y-5.5932
X9.1759Y-5.706
X9.2323Y-5.5699
X9.2323Y-5.7293
X9.2887Y-5.5932
X9.2887Y-5.706
X9.312Y-5.6496
X3.2864Y-2.1457
X3.3098Y-2.0893
X3.3098Y-2.202
X3.3661Y-2.0659
X3.3661Y-2.2254
X3.4225Y-2.0893
X3.4225Y-2.202
X3.4459Y-2.1457
X3.2864Y-5.6496
X3.3098Y-5.5932
X3.3098Y-5.706
X3.3661Y-5.5699
X3.3661Y-5.7293
X3.4225Y-5.5932
X3.4225Y-5.706
X3.4459Y-5.6496
X9.1526Y-2.1457
X9.1759Y-2.0893
X9.1759Y-2.202
X9.2323Y-2.0659
X9.2323Y-2.2254
X9.2887Y-2.0893
X9.2887Y-2.202
X9.312Y-2.1457
T2
X6.4173Y-2.7953
X6.4173Y-2.8937
X8.3996Y-3.2283
X8.8996Y-3.2283
X8.3795Y-5.1969
X8.7795Y-5.1969
X7.5346Y-2.3803
X7.5346Y-2.4803
X7.8346Y-2.3803
X7.8346Y-2.4803
X3.7598Y-2.8583
X4.0551Y-2.9134
X8.0709Y-2.474
X8.0709Y-2.874
X8.2283Y-2.4803
X8.2283Y-2.8803
X6.2598Y-2.2835
X6.2598Y-2.6835
X8.0677Y-2.3061
X8.1677Y-2.3061
X8.2677Y-2.3061
X6.1024Y-2.7953
X6.1024Y-2.9921
X6.1024Y-2.2835
X6.1024Y-2.6835
X8.5433Y-2.474
X8.5433Y-2.874
X6.2598Y-2.7953
X6.2598Y-2.9921
X6.8898Y-2.2441
X7.1898Y-2.2441
X6.5748Y-3.0315
X6.5748Y-3.2283
X8.4449Y-2.3228
X8.5433Y-2.3228
X8.3858Y-2.474
X8.3858Y-2.874
X6.8047Y-2.6378
X7.2047Y-2.6378
X6.1173Y-3.1496
X6.1173Y-3.4496
X6.2173Y-3.1496
X6.2173Y-3.4496
X6.3173Y-3.1496
X6.3173Y-3.4496
X6.4173Y-3.1496
X6.4173Y-3.4496
X6.6142Y-2.0669
X6.6142Y-2.1654
X8.5039Y-4.8425
X8.7008Y-4.8425
T3
X7.2441Y-3.3228
X7.2441Y-3.5197
X7.2441Y-3.7165
X7.2441Y-3.9134
X7.2441Y-4.1102
X8.0315Y-3.3465
X8.0315Y-3.4945
X8.0315Y-3.6425
X8.0315Y-3.7906
X8.0315Y-3.9386
X8.0315Y-4.0866
T4
X5.5906Y-3.937
X5.5906Y-4.1339
X7.5787Y-4.5276
X7.874Y-4.5276
X8.5039Y-3.937
X8.7008Y-3.937
X6.9685Y-3.937
X6.9685Y-4.1339
X3.7008Y-2.6378
X4.0945Y-2.6378
X9.1732Y-3.248
X9.1732Y-3.5433
X8.5039Y-4.4094
X8.7008Y-4.4094
T5
X5.7811Y-4.1339
X6.1811Y-4.1339
X5.7811Y-3.937
X6.1811Y-3.937
T6
X3.622Y-3.2283
X4.2126Y-3.2283
X3.7008Y-3.622
X3.7008Y-4.0945
X4.0945Y-3.622
X4.0945Y-4.0945
X5.1969Y-4.3701
X6.1969Y-4.3701
X6.7323Y-3.9213
X6.7323Y-4.9213
X5.9449Y-5.0787
X5.9449Y-5.374
X3.622Y-4.4882
X4.2126Y-4.4882
T7
X9.1339Y-4.5276
X9.1339Y-4.7244
X4.5669Y-2.6378
X5.4528Y-2.6378
X6.4961Y-3.937
X6.4961Y-4.537
T8
X4.5669Y-2.126
X5.3669Y-2.126
X3.7551Y-2.3228
X4.0551Y-2.3228
X8.4252Y-5.4724
X8.7252Y-5.4724
T9
X4.9213Y-4.9213
X4.9213Y-5.1213
X4.9213Y-5.3213
X4.9213Y-5.5213
X8.3296Y-3.5433
X8.9296Y-3.5433
T10
X9.2323Y-2.1457
X9.2323Y-5.6496
X3.3661Y-2.1457
X3.3661Y-5.6496
T0
M30
